<?xml version="1.0" standalone="no"?>
<!DOCTYPE svg PUBLIC "-//W3C//DTD SVG 20010904//EN"
 "http://www.w3.org/TR/2001/REC-SVG-20010904/DTD/svg10.dtd">
<svg version="1.0" xmlns="http://www.w3.org/2000/svg"
 width="512.000000pt" height="512.000000pt" viewBox="0 0 512.000000 512.000000"
 preserveAspectRatio="xMidYMid meet">
<metadata>
Created by potrace 1.11, written by Peter Selinger 2001-2013
</metadata>
<g transform="translate(0.000000,512.000000) scale(0.100000,-0.100000)"
fill="#000000" stroke="none">
<path d="M0 4642 l0 -477 163 -163 162 -162 1120 0 1120 0 -1283 -1283 -1282
-1282 0 -475 0 -475 163 -163 162 -162 2398 0 2397 0 0 478 0 477 -163 163
-162 162 -1120 0 -1120 0 1283 1283 1282 1282 0 475 0 475 -162 162 -163 163
-2397 0 -2398 0 0 -478z"/>
</g>
</svg>
